<?xml version="1.0" standalone="no"?><svg xmlns="http://www.w3.org/2000/svg" viewBox="0 0 1440 320"><path fill="#ff2e63" fill-opacity="0.5" d="M0,160L34.3,165.3C68.6,171,137,181,206,192C274.3,203,343,213,411,186.7C480,160,549,96,617,80C685.7,64,754,96,823,96C891.4,96,960,64,1029,74.7C1097.1,85,1166,139,1234,154.7C1302.9,171,1371,149,1406,138.7L1440,128L1440,320L1405.7,320C1371.4,320,1303,320,1234,320C1165.7,320,1097,320,1029,320C960,320,891,320,823,320C754.3,320,686,320,617,320C548.6,320,480,320,411,320C342.9,320,274,320,206,320C137.1,320,69,320,34,320L0,320Z"></path></svg>